<?xml version="1.0" encoding="utf-8"?>
<svg version="1.1" id="Layer_1" xmlns="http://www.w3.org/2000/svg" xmlns:xlink="http://www.w3.org/1999/xlink" x="0px" y="0px"
	 viewBox="0 0 5000 4927.392" enable-background="new 0 0 5000 4927.392" xml:space="preserve">
<g>
	<g>
		<g>
			<path fill="#F1CCA1" d="M3227.058,2319.217c-5.858-357.016,279.109-644.204,536.507-520.857
				c561.854,269.214,452.592,854.494,827.177,936.439c374.587,81.948,546.253,472.133,280.927,647.687
				c93.661,347.271-193.124,353.128-392.104,189.236c9.743,259.471-585.283,87.802-643.799-444.817
				c-58.57-532.57-310.211-1026.159-556.048-680.858"/>
			<path fill="#C49A6C" fill-opacity="0.3" d="M4883.788,2894.903c59.78,151.572,24.336,386.401-101.84,397.861
				c128.75,97.549,15.601,339.446-362.872,74.12c-23.426,300.468-413.615,19.489-476.019-234.121
				c-62.458-253.613-202.922-792.038-456.532-885.696c-106.18-39.231-208.475-162.579-143.695-305.871
				c-72.452,99.213-118.146,232.86-115.773,378.02l52.661,126.83c245.837-345.301,497.477,148.289,556.048,680.858
				c58.516,532.619,653.542,704.287,643.799,444.817c198.979,163.892,485.764,158.034,392.104-189.236
				C5050.606,3264.088,5030.613,3048.14,4883.788,2894.903z"/>
			<path fill="#F1CCA1" d="M1529.783,528.284c345.303-23.377,245.785,678.938,561.854,714.03
				c316.017,35.139,723.776-60.437,620.373,398.013c228.263,46.803,228.263,339.443,140.463,403.817
				c169.748,17.571,298.495,199.034-23.428,275.072c-321.875,76.087-1205.653,117.087-1270.026-157.985
				C1494.644,1886.162,1149.34,838.495,1529.783,528.284z"/>
			<g>
				<path fill="#C49A6C" fill-opacity="0.3" d="M2370.038,2373.191c-102.796-20.096-221.397-62.254-354.488-137.84
					c-460.42-261.438-394.076-955.927-417.502-1236.904c-20.451-245.584,54.478-374.89,146.673-330.457
					c-46.855-87.247-110.471-146.776-214.937-139.706c-290.166,236.595-158.184,901.853-50.639,1326.474
					c163.487,178.33,349.339,367.97,494.499,506.716C2098.402,2375.815,2237.1,2378.389,2370.038,2373.191z"/>
				<path fill="#C49A6C" fill-opacity="0.3" d="M2852.473,2044.145c87.8-64.374,87.8-357.014-140.463-403.817
					c47.258-209.586-12.421-303.195-121.228-346.666c37.161,94.314,42.209,214.281-21.156,325.207
					c288.703,46.803,280.927,390.186,97.549,417.502c132.636,11.713,198.98,167.778,148.239,245.834
					c-10.604,16.309-31.81,35.242-62.709,52.511c27.818-4.948,53.62-10.097,76.34-15.5
					C3150.968,2243.179,3022.22,2061.716,2852.473,2044.145z"/>
			</g>
			<path fill="#C49A6C" d="M552.347,756.55C288.991,481.479,154.386,83.465,365.078,7.378
				c210.695-76.038,362.874,456.53,351.159,637.993"/>
			<path fill="#C49A6C" d="M967.88,3062.531c-128.75,239.979-444.816,673.083-421.39,825.259
				c23.429,152.177,403.871,602.802,433.103,801.833c76.089,275.069,316.069-152.177,257.501-298.498
				c-58.519-146.318-280.927-485.816-245.785-544.332c35.09-58.519,316.066-474.051,316.066-474.051"/>
			<path fill="#C49A6C" d="M2495.456,3501.49c5.858,374.587,374.585,608.709,333.588,795.978
				c-76.09,316.066-198.982,485.764-163.841,550.19c35.09,64.374,280.927,87.751,368.729-76.089
				c87.803-163.89,275.069-620.422,222.408-913.062C3203.629,3565.866,2712.009,3343.458,2495.456,3501.49z"/>
			<path fill="#996B39" fill-opacity="0.5" d="M967.88,3062.531c-128.75,239.979-444.816,673.083-421.39,825.259
				c23.429,152.177,403.871,602.802,433.103,801.833c76.089,275.069,316.069-152.177,257.501-298.498
				c-58.519-146.318-280.927-485.816-245.785-544.332c35.09-58.519,316.066-474.051,316.066-474.051"/>
			<path fill="#996B39" fill-opacity="0.5" d="M2495.456,3501.49c5.858,374.587,374.585,608.709,333.588,795.978
				c-76.09,316.066-198.982,485.764-163.841,550.19c35.09,64.374,280.927,87.751,368.729-76.089
				c87.803-163.89,275.069-620.422,222.408-913.062C3203.629,3565.866,2712.009,3343.458,2495.456,3501.49z"/>
			<path fill="#C49A6C" d="M1166.911,551.71c-548.068-85.329-801.833,204.84-813.546,415.533
				c-11.713,210.695-105.371,456.532-280.927,632.086c-175.603,175.605-40.997,696.511,503.335,474.103
				c187.269-81.947,292.643-134.608,374.587-122.893c58.516,520.854-433.103,1012.526,111.18,1469.006
				c544.28,456.532,1533.432,210.695,1726.556,122.944c122.893,474.051,690.654,433.103,661.37,743.263
				c-76.09,427.248-193.125,567.761-111.18,608.708c81.896,40.948,280.927,40.948,397.964-327.782
				c117.035-368.678,87.8-661.37-64.376-731.55c-152.177-70.283-224.378-323.842-208.777-413.615
				c228.266-386.3,202.922-1032.017-294.558-1154.959c-497.477-122.893-1229.079,23.426-1346.165-321.875
				C1705.339,1599.328,1880.942,662.89,1166.911,551.71z"/>
			<path fill="#996B39" fill-opacity="0.5" d="M1185.744,555.448c-6.411-1.163-12.318-2.727-18.832-3.738
				c-244.423-38.068-430.174-1.362-562.156,69.627c-64.979,40.795-124.658,90.176-173.785,146.975
				c-48.571,65.284-74.071,135.668-77.604,198.93c-1.262,22.57-3.635,45.593-6.765,68.82
				c139.859,60.434,378.625-117.795,429.115-245.382C865.689,939.727,1177.011,805.021,1185.744,555.448z"/>
			<path fill="#F1CCA1" d="M2739.323,3351.283c0,0-368.73,111.179-895.442,140.463c-889.633-52.661-749.169-725.743-795.975-848.636
				c-39.332-103.254-157.124-90.783-232.002,110.117c-37.16,229.479-10.149,451.786,245.635,666.317
				c537.97,451.23,1510.055,216.4,1718.982,126.124C2774.716,3493.615,2762.297,3428.533,2739.323,3351.283z"/>
			<path fill="#C49A6C" fill-opacity="0.3" d="M2689.741,3364.914c-46.855,58.418-115.471,124.661-202.061,154.146
				c-125.468,42.765-426.843,105.877-638.295-27.617c-1.867,0.049-3.687,0.202-5.504,0.302
				c-85.53-5.049-161.415-15.903-228.972-31.406c-473.547-11.814-732.459-282.188-810.162-496.014
				c12.672,155.31,80.228,307.132,256.793,455.219c537.97,451.23,1510.055,216.4,1718.982,126.124
				c-5.806-52.053-18.225-117.135-41.198-194.386C2739.323,3351.283,2722.055,3356.484,2689.741,3364.914z"/>
			<path fill="#F1CCA1" d="M575.773,2073.431c23.682-10.402,45.947-19.996,67-28.881c37.313-378.372-230.688-607.799-445.22-602.499
				c-35.698,56.197-77.25,109.414-125.116,157.277C-103.164,1774.934,31.441,2295.84,575.773,2073.431z"/>
			<path fill="#2E1F10" d="M679.583,1286.745c-13.28,43.269-0.708,85.53,28.172,94.366c28.829,8.887,63.012-18.985,76.291-62.254
				c13.28-43.22,0.706-85.479-28.123-94.366C727.094,1215.605,692.912,1243.475,679.583,1286.745z"/>
			<path fill="#C49A6C" d="M1278.091,3243.991c117.037,450.674,280.927,1223.223,122.893,1597.808
				c-40.948,99.467,257.55,140.464,427.248-35.142c128.8-474.051,40.997-1106.134-70.232-1410.49
				C1646.82,3091.815,1207.859,3033.296,1278.091,3243.991z"/>
			<path fill="#F1CCA1" d="M1196.146,364.392C997.164,77.659,704.524,77.659,435.31,177.126
				c-269.263,99.516-35.139,210.695,99.466,163.89C101.673,627.8,148.528,856.066,353.365,967.243
				c204.84,111.231,386.249-245.785,386.249-245.785c-35.09,251.643,304.356,29.235,427.297-169.747
				C1289.804,352.731,1196.146,364.392,1196.146,364.392z"/>
			<path fill="#C49A6C" fill-opacity="0.3" d="M1166.911,551.71c-122.942,198.982-462.387,421.39-427.297,169.747
				c0,0-181.409,357.016-386.249,245.785C151.154,857.477,103.237,633.606,518.62,352.022
				c-396.599,288.4-257.803,786.889,287.39,256.288c-31.507,181.915,303.95,15.448,356.662-288.199
				c11.411,13.988,22.62,28.63,33.474,44.28C1196.146,364.392,1289.804,352.731,1166.911,551.71z M533.717,341.32
				c25.042-17.268,52.004-33.779,81.087-49.078c-169.091,30.295-241.696-32.464-207.665-103.807
				C184.427,284.567,404.007,385.497,533.717,341.32z"/>
			<path fill="#C49A6C" d="M1202.001,815.066c-193.125-198.98,70.231-749.12,357.016-801.833
				c286.782-52.661,87.803,608.709-122.893,743.317"/>
			<path fill="#F1CCA1" d="M2807.637,2440.191c0,31.251-47.209,56.598-105.374,56.598s-105.373-25.347-105.373-56.598
				c0-31.254,47.208-56.549,105.373-56.549S2807.637,2408.938,2807.637,2440.191z"/>
			<path fill="#F1CCA1" d="M3135.367,2385.561c0,31.254-47.157,56.598-105.374,56.598c-58.165,0-105.322-25.344-105.322-56.598
				c0-31.254,47.157-56.549,105.322-56.549C3088.21,2329.011,3135.367,2354.307,3135.367,2385.561z"/>
			<path fill="#F1CCA1" d="M3213.424,2639.222c0,31.202-47.157,56.549-105.371,56.549c-58.165,0-105.322-25.347-105.322-56.549
				c0-31.254,47.157-56.601,105.322-56.601C3166.267,2582.622,3213.424,2607.969,3213.424,2639.222z"/>
			<g>
				<g>
					<g>
						<path fill="#996B39" d="M365.06,1841.282c-1.652,0.446-3.527-0.047-5.573-1.358c-2.042-1.312-4.25-3.444-6.679-6.247
							c-4.828-5.615-10.394-13.969-16.964-23.937c-6.598-9.939-14.228-21.534-23.278-33.222
							c-4.503-5.854-9.429-11.642-14.639-17.164c-5.238-5.428-10.846-10.624-16.502-14.605c-2.81-1.998-5.544-3.645-7.994-4.852
							c-2.453-1.232-4.594-1.943-6.069-2.284l-0.542-0.143c-0.151-0.015-0.302-0.041-0.453-0.078l-0.227-0.062
							c-0.059-0.001-0.118-0.005-0.177-0.012c-0.118-0.014-0.237-0.041-0.359-0.08c-0.373-0.006-0.705-0.153-0.883-0.16
							c-0.423-0.151-0.797-0.25-1.745,0.206c-0.91,0.445-2.193,1.58-3.435,3.3c-1.252,1.709-2.46,3.924-3.564,6.311
							c-2.15,4.887-3.839,10.439-5.176,15.792c-2.653,10.79-4.343,20.626-6.477,27.622c-0.517,1.757-1.09,3.347-1.677,4.752
							c-0.569,1.404-1.183,2.624-1.842,3.641c-1.319,2.035-2.82,3.263-4.508,3.545c-1.694,0.282-3.496-0.399-5.381-2.003
							c-0.943-0.802-1.907-1.834-2.888-3.09c-0.964-1.26-1.915-2.754-2.889-4.464c-3.805-6.87-7.684-17.248-9.428-31.476
							c-0.811-7.131-1.039-15.275,0.399-24.66c0.796-4.711,2.004-9.74,4.163-15.088c2.164-5.32,5.326-11.048,10.26-16.463
							c0.622-0.673,1.255-1.342,1.899-2.005c0.676-0.653,1.4-1.29,2.116-1.926c1.401-1.292,3.024-2.455,4.652-3.606
							c0.798-0.591,1.693-1.088,2.563-1.611c0.883-0.506,1.756-1.04,2.678-1.49c1.853-0.875,3.734-1.789,5.695-2.425
							c3.913-1.452,7.946-2.213,11.954-2.679c0.981-0.075,1.968-0.139,2.959-0.189l1.488-0.067l1.441,0.017
							c0.962,0.028,1.927,0.057,2.894,0.086c0.949,0.058,1.863,0.163,2.799,0.257c7.455,0.808,14.144,2.883,20.133,5.515
							c6.01,2.64,11.407,5.848,16.374,9.369c9.933,7.061,17.693,15.029,24.366,23.059c6.566,8.082,11.999,16.275,16.433,24.33
							c8.901,16.11,14.217,31.476,17.281,44.584c3.017,13.139,3.764,24.046,3.035,31.798c-0.349,3.875-1.11,6.978-2.166,9.214
							C368.075,1839.465,366.718,1840.834,365.06,1841.282z"/>
					</g>
				</g>
			</g>
			<g>
				<g>
					<g>
						<path fill="#996B39" d="M431.392,1907.621c3.398-0.002,6.716,4.694,9.482,13.405c2.737,8.707,4.91,21.436,5.529,37.374
							c0.583,15.924-0.322,35.092-4.553,56.343c-2.11,10.618-5.093,21.747-9.268,33.127c-4.205,11.365-9.61,23.004-16.784,34.352
							c-7.183,11.327-15.847,21.802-25.834,30.579c-4.985,4.387-10.285,8.345-15.792,11.777c-5.518,3.42-11.236,6.307-16.993,8.636
							c-5.759,2.327-11.547,4.118-17.229,5.38c-5.688,1.237-11.247,1.975-16.584,2.345c-10.682,0.611-20.426-0.242-28.912-1.981
							c-17.022-3.471-29.16-9.632-36.811-14.99c-3.814-2.74-6.537-5.291-8.133-7.604c-1.606-2.292-2.124-4.253-1.523-5.855
							c0.603-1.608,2.293-2.783,4.889-3.572c2.589-0.764,6.114-1.239,10.392-1.465c4.287-0.274,9.34-0.314,15.003-0.472
							c5.659-0.171,11.924-0.412,18.543-1.083c6.623-0.635,13.566-1.851,20.533-3.722c3.467-0.997,6.94-2.152,10.379-3.53
							c3.43-1.403,6.81-3.055,10.137-4.942c3.325-1.892,6.59-4.039,9.778-6.469c3.179-2.447,6.283-5.176,9.297-8.192
							c6.031-6.026,11.698-13.229,16.898-21.419c10.368-16.454,17.876-34.946,23.729-52.453
							c5.876-17.546,10.157-34.21,13.903-48.405c3.725-14.213,6.887-26.015,10.079-34.248
							C424.715,1912.302,427.934,1907.622,431.392,1907.621z"/>
					</g>
				</g>
			</g>
			<g>
				<g>
					<g>
						<path fill="#996B39" d="M944.499,1950.521c-0.373-1.67,1.377-3.793,5.018-6.297c1.82-1.252,4.113-2.6,6.851-4.034
							c2.725-1.481,5.889-3.063,9.469-4.726c7.153-3.35,15.915-7.197,26.029-11.559c10.081-4.447,21.548-9.33,33.96-15.084
							c12.413-5.741,25.822-12.225,39.795-19.706c13.986-7.454,28.478-16.002,43.013-25.77c0.911-0.607,1.824-1.216,2.74-1.827
							c0.899-0.632,1.8-1.266,2.704-1.902c1.807-1.27,3.624-2.548,5.452-3.833c3.579-2.661,7.249-5.281,10.802-8.106
							c3.628-2.737,7.125-5.686,10.711-8.592c1.747-1.501,3.503-3.008,5.267-4.523c1.786-1.49,3.462-3.107,5.214-4.659
							c6.914-6.302,13.688-12.951,20.191-20.008c6.481-7.075,12.717-14.528,18.627-22.364
							c11.816-15.675,21.786-32.119,29.911-48.872c8.116-16.757,14.585-33.715,19.613-50.386
							c10.145-33.345,14.946-65.227,18.177-92.306c1.571-13.562,2.717-25.964,3.73-36.927c1.023-10.964,1.883-20.492,2.832-28.335
							c1.878-15.686,4.168-24.644,7.609-24.981c3.382-0.333,7.599,7.992,11.678,23.663c2.028,7.836,4.007,17.51,5.639,28.865
							c1.641,11.352,2.966,24.384,3.612,38.911c0.621,14.525,0.539,30.551-0.74,47.812c-0.645,8.63-1.642,17.562-2.961,26.754
							c-1.353,9.19-3.129,18.63-5.335,28.262c-4.412,19.259-10.868,39.26-19.737,59.201c-8.869,19.932-20.377,39.695-34.377,58.255
							c-6.999,9.28-14.45,18.032-22.211,26.226c-7.782,8.175-15.896,15.758-24.161,22.805c-2.087,1.735-4.11,3.535-6.229,5.183
							c-2.104,1.667-4.198,3.326-6.283,4.978c-4.252,3.178-8.434,6.368-12.719,9.287c-4.224,3.017-8.539,5.771-12.773,8.538
							c-2.134,1.353-4.286,2.643-6.41,3.95c-1.064,0.649-2.125,1.296-3.183,1.941c-1.072,0.617-2.14,1.232-3.206,1.845
							c-17.03,9.839-33.809,17.827-49.81,24.251c-15.995,6.452-31.177,11.446-45.151,15.365
							c-27.983,7.763-51.086,11.298-67.23,12.377c-4.043,0.248-7.647,0.37-10.793,0.353c-3.156-0.065-5.85-0.254-8.06-0.571
							C947.357,1953.34,944.874,1952.197,944.499,1950.521z"/>
					</g>
				</g>
			</g>
			<g>
				<g>
					<g>
						<path fill="#996B39" d="M1377.588,3694.67c-13.326,3.095-50.531-107.86-82.453-247.966
							c-15.966-70.05-27.555-134.14-33.395-181.098c-5.838-46.964-5.941-76.764,0.732-78.208
							c6.731-1.457,18.957,25.652,33.551,70.579c14.599,44.932,31.591,107.705,47.543,177.695
							C1375.459,3575.648,1390.979,3691.56,1377.588,3694.67z"/>
					</g>
				</g>
			</g>
			<g>
				<g>
					<g>
						<path fill="#996B39" d="M1860.426,3811.704c-13.417,2.709-41.808-83.185-63.368-191.839
							c-21.56-108.654-28.098-198.78-14.64-201.276c13.51-2.506,41.886,83.392,63.405,191.832
							C1867.342,3718.861,1873.894,3808.985,1860.426,3811.704z"/>
					</g>
				</g>
			</g>
			<g>
				<g>
					<g>
						<path fill="#996B39" d="M2866.139,3725.88c-1.276,1.135-4.072,0.449-8.32-2.058c-4.115-2.588-9.688-7.016-15.862-13.545
							c-12.47-12.968-27.681-34.103-42.443-61.983c-14.836-27.852-29.469-62.307-42.618-101.383
							c-13.187-39.073-25.004-82.754-34.679-129.097c-19.385-92.7-26.684-178.406-26.056-240.567
							c0.148-15.542,0.771-29.614,1.744-41.957c0.983-12.346,2.333-22.963,3.847-31.606c3.086-17.3,6.857-26.659,10.237-26.512
							c3.47,0.149,6.235,9.696,9.095,26.615c1.458,8.466,2.93,18.783,4.58,30.732c1.633,11.927,3.493,25.507,5.549,40.52
							c4.139,29.976,9.304,65.588,15.833,104.989c6.511,39.399,14.393,82.584,23.792,127.622
							c9.401,45.036,19.517,87.633,29.85,125.959c10.3,38.342,20.914,72.366,30.923,100.427
							c9.956,28.106,19.489,50.086,26.323,65.357c3.366,7.683,6.146,13.61,7.622,18.08
							C2867.14,3721.832,2867.424,3724.737,2866.139,3725.88z"/>
					</g>
				</g>
			</g>
			<path fill="#C5683E" d="M1010.847,1566.157c0,79.773-73.817,144.401-164.9,144.401c-91.034,0-164.849-64.627-164.849-144.401
				c0-79.724,73.815-144.351,164.849-144.351C937.03,1421.805,1010.847,1486.432,1010.847,1566.157z"/>
			<g>
				<g>
					<g>
						<path fill="#996B39" d="M1239.042,713.63c-3.345-0.454-5.442-10.389-5.379-28.1c0.066-17.693,2.366-43.171,8.372-74.138
							c5.975-30.957,15.732-67.368,30.14-106.551c14.376-39.183,33.433-81.104,57.265-123.015
							c47.69-83.81,105.307-151.542,157.445-190.249c13.038-9.654,25.732-17.487,37.814-23.136c12.06-5.643,23.583-9.1,33.722-9.846
							c2.515-0.208,4.972-0.184,7.255-0.067c2.315,0.181,4.461,0.438,6.466,0.924c3.989,0.887,7.247,2.392,9.564,4.009
							c4.678,3.329,5.563,6.482,4.637,7.792c-0.987,1.466-3.799,1.325-7.757,1.718c-3.973,0.379-9.213,1.424-15.938,4.489
							c-6.705,3.018-14.79,7.972-23.753,14.849c-8.969,6.868-18.806,15.62-29.199,25.973c-20.798,20.72-43.793,47.872-67.185,79.751
							c-23.411,31.877-47.23,68.517-69.895,108.352c-22.657,39.847-41.997,79.099-57.978,115.532
							c-16.01,36.431-28.7,70.034-38.687,98.597c-10.015,28.561-17.396,52.075-23.242,68.331
							C1246.866,705.098,1242.49,714.101,1239.042,713.63z"/>
					</g>
				</g>
			</g>
		</g>
		<path fill="#996B39" fill-opacity="0.5" d="M1694.634,1504.761c18.328,234.475,46.956,425.379,193.628,542.567
			c-29.486-28.276-52.053-61.952-65.889-102.646c-94.012-277.393,0.403-935.834-328.741-1241.955
			c-36.049,29.436-68.262,58.72-68.262,58.72C1530.742,837.536,1665.35,1130.176,1694.634,1504.761z"/>
		<path fill="#996B39" fill-opacity="0.5" d="M1663.078,4907.487c58.265-18.53,116.934-50.893,165.153-100.829
			c112.997-415.835,59.274-953.252-30.698-1284.415C1836.814,3984.783,1763.553,4639.384,1663.078,4907.487z"/>
		<path fill="#996B39" fill-opacity="0.5" d="M1252.744,1730.049c-59.829,140.714-199.838,198.931-302.182,223.013
			c15.146,138.796-8.634,275.524-41.25,410.13C1067.246,2190.265,1238.355,1950.386,1252.744,1730.049z"/>
		<g>
			<g>
				<g>
					<path fill="#C49A6C" d="M4477.577,3589.289c-1.686-0.292-3.067-2.302-4.167-5.767c-1.041-3.46-2.019-8.401-2.865-14.567
						c-1.883-12.333-3.854-29.67-9.154-49.837c-2.654-10.079-6.175-20.841-10.794-32.029c-0.537-1.409-1.195-2.797-1.806-4.209
						c-0.628-1.407-1.219-2.835-1.878-4.255c-1.375-2.824-2.64-5.724-4.154-8.591c-2.847-5.79-6.144-11.609-9.599-17.53
						c-3.495-5.909-7.344-11.853-11.396-17.872c-4.108-5.998-8.495-12.04-13.109-18.134c-9.296-12.161-19.584-24.485-30.625-37.001
						c-22.071-25.029-44.726-48.674-64.457-71.882c-9.879-11.574-19.035-23.056-27.13-34.318
						c-8.076-11.291-15.13-22.325-20.789-32.983c-5.684-10.631-10.037-20.784-13.05-30.002c-3.029-9.217-4.705-17.476-5.456-24.279
						c-0.668-6.845-0.468-12.218,0.348-15.934c0.837-3.725,2.105-5.754,3.784-6.08c3.47-0.66,7.705,5.568,14.203,15.887
						c3.332,5.148,7.24,11.332,12.085,18.246c4.836,6.919,10.598,14.568,17.373,22.78c6.744,8.225,14.612,16.968,23.342,26.241
						c8.766,9.264,18.443,19.032,28.875,29.352c10.407,10.328,21.542,21.211,33.04,32.832
						c11.491,11.622,23.369,23.968,35.115,37.322c11.757,13.33,22.792,27.081,32.67,41.166c4.915,7.069,9.553,14.199,13.844,21.388
						c4.246,7.229,8.202,14.458,11.716,21.738c3.479,7.3,6.68,14.529,9.325,21.781c1.405,3.579,2.544,7.229,3.746,10.765
						c0.575,1.781,1.076,3.579,1.604,5.344c0.51,1.773,1.057,3.511,1.479,5.283c3.687,14.046,5.716,27.481,6.423,39.735
						c0.718,12.262,0.13,23.327-1.102,32.867c-1.171,9.555-3.222,17.58-5.222,23.994c-2.161,6.397-4.317,11.197-6.49,14.293
						C4481.188,3588.141,4479.269,3589.583,4477.577,3589.289z"/>
				</g>
			</g>
		</g>
		<g>
			<g>
				<g>
					<path fill="#C49A6C" d="M4887.303,3444.942c-3.474,0.224-6.882-4.19-11.043-11.48c-4.194-7.302-9.246-17.48-16.525-29.146
						c-7.264-11.672-16.699-24.875-28.706-38.634c-11.939-13.788-26.373-28.14-42.591-42.51
						c-16.212-14.377-32.589-27.454-47.768-39.261c-15.192-11.8-29.204-22.324-40.925-31.498c-11.72-9.179-21.159-17-27.296-23.352
						c-6.139-6.339-8.991-11.227-7.543-14.338c1.444-3.105,7.097-4.122,16.112-2.992c9.002,1.14,21.35,4.431,35.953,10.074
						c14.601,5.638,31.47,13.619,49.358,24.207c17.869,10.597,36.792,23.796,55.076,40.006
						c18.276,16.188,34.091,33.958,46.162,52.102c12.138,18.073,20.361,36.538,24.624,52.776c2.143,8.122,3.336,15.67,3.757,22.341
						c0.148,1.653,0.152,3.285,0.191,4.832c0.034,1.55,0.034,3.038-0.048,4.477c-0.065,1.434-0.15,2.802-0.254,4.101
						c-0.143,1.309-0.313,2.551-0.494,3.722c-0.334,2.338-0.872,4.422-1.426,6.213c-0.538,1.789-1.2,3.301-1.915,4.523
						C4890.588,3443.55,4889.016,3444.828,4887.303,3444.942z"/>
				</g>
			</g>
		</g>
		<g>
			<g>
				<g>
					<path fill="#C49A6C" d="M2791.973,1673.515c-2.074,2.808-8.453,1.936-18.367-0.433c-9.928-2.397-23.617-6.047-40.835-9.369
						c-17.197-3.381-37.984-6.349-61.528-8.811c-23.536-2.5-49.83-4.463-77.837-6.836c-28.007-2.376-55.1-5.046-79.964-9.089
						c-12.422-1.998-24.298-4.376-35.394-7.118c-11.102-2.766-21.439-5.957-30.753-9.53c-9.317-3.606-17.606-7.627-24.574-11.869
						c-6.973-4.231-12.603-8.696-16.72-12.891c-2.08-2.052-3.737-4.15-5.089-5.977c-1.31-1.914-2.286-3.633-2.93-5.154
						c-1.23-3.132-1.221-5.31-0.084-6.587c2.397-2.625,8.436-1.073,18.016,1.121c4.79,1.132,10.506,2.465,17.215,3.742
						c6.706,1.284,14.4,2.524,23.038,3.632c8.658,1.079,18.245,2.046,28.672,2.889c10.441,0.821,21.688,1.571,33.664,2.254
						c23.927,1.414,50.673,2.675,79.112,5.083c28.432,2.411,55.877,5.862,80.823,11.13c24.933,5.222,47.353,12.271,65.379,20.67
						c18.058,8.322,31.559,17.86,39.506,25.995c0.996,1.02,1.915,2.002,2.758,2.943c0.843,0.941,1.575,1.907,2.25,2.792
						c1.343,1.784,2.382,3.391,3.068,4.89C2792.798,1669.95,2792.987,1672.129,2791.973,1673.515z"/>
				</g>
			</g>
		</g>
		<g>
			<g>
				<g>
					<path fill="#996B39" d="M3470.907,3538.555c-1.623,0.542-3.524,0.044-5.679-1.467c-1.077-0.755-2.217-1.763-3.416-3.019
						c-0.599-0.628-1.213-1.318-1.841-2.07c-0.597-0.756-1.196-1.575-1.811-2.454c-1.227-1.758-2.498-3.756-3.806-5.987
						c-1.253-2.236-2.471-4.708-3.748-7.399c-1.315-2.691-2.435-5.607-3.649-8.729c-0.585-1.561-1.231-3.175-1.773-4.836
						c-0.537-1.668-1.088-3.38-1.652-5.133c-4.367-14.074-7.87-31.207-9.802-50.207c-1.958-19.003-2.529-39.891-1.541-61.57
						c1.963-43.397,9.155-81.707,16.685-108.763c3.788-13.544,7.688-24.301,11.381-31.623c3.696-7.307,7.221-11.275,10.65-11.051
						c3.413,0.222,6.394,4.813,8.589,12.939c2.201,8.112,3.597,19.652,4.281,33.657c1.398,28.034-0.112,65.896-1.964,107.034
						c-0.938,20.578-1.737,40.021-2.347,57.649c-0.631,17.635-0.905,33.406-1.196,46.75c-0.045,1.673-0.089,3.306-0.131,4.897
						c-0.065,1.601-0.043,3.13-0.089,4.645c-0.052,3.013-0.237,5.914-0.276,8.583c-0.076,2.683-0.244,5.227-0.41,7.581
						c-0.116,2.333-0.298,4.504-0.546,6.498c-0.123,0.996-0.268,1.95-0.419,2.853c-0.123,0.891-0.265,1.737-0.427,2.536
						c-0.323,1.596-0.722,3.003-1.2,4.199C3473.812,3536.459,3472.536,3538.012,3470.907,3538.555z"/>
				</g>
			</g>
		</g>
		<path fill="#996B39" fill-opacity="0.5" d="M3736.25,4566.679c117.035-368.678,87.8-661.37-64.376-731.55
			c-152.177-70.283-224.378-323.842-208.777-413.615c189.138-320.057,203.829-817.837-79.471-1049.234
			c260.024,391.804-21.254,797.087-0.504,1119.466c23.426,362.872,351.208,415.533,351.208,585.28
			c-16.661,498.892-185.55,829.553-382.41,823.341C3440.63,4934.397,3625.221,4916.374,3736.25,4566.679z"/>
	</g>
</g>
</svg>
